<svg width="67" height="71" viewBox="0 0 67 71" fill="none" xmlns="http://www.w3.org/2000/svg">
<path d="M23.5625 42.1094C23.5625 51.3281 21.4844 58.4375 17.3281 63.4375C13.2031 68.4375 7.375 70.9375 -0.15625 70.9375C-7.75 70.9375 -13.625 68.4219 -17.7812 63.3906C-21.9375 58.3594 -24.0156 51.2656 -24.0156 42.1094V29.6406C-24.0156 20.4219 -21.9531 13.3125 -17.8281 8.3125C-13.6719 3.3125 -7.8125 0.8125 -0.25 0.8125C7.3125 0.8125 13.1719 3.32813 17.3281 8.35938C21.4844 13.3906 23.5625 20.5 23.5625 29.6875V42.1094ZM7.76562 27.625C7.76562 22.7188 7.125 19.0625 5.84375 16.6562C4.5625 14.2188 2.53125 13 -0.25 13C-2.96875 13 -4.95312 14.125 -6.20312 16.375C-7.42188 18.625 -8.07812 22.0312 -8.17188 26.5938V44.0312C-8.17188 49.125 -7.53125 52.8594 -6.25 55.2344C-4.96875 57.5781 -2.9375 58.75 -0.15625 58.75C2.53125 58.75 4.51562 57.6094 5.79688 55.3281C7.07812 53.0156 7.73438 49.4062 7.76562 44.5V27.625ZM66.7812 70H50.9375V19.5625L35.375 24.1094V12.1094L65.3281 1.75H66.7812V70Z" fill="#944B6E"/>
</svg>
