<svg width="79" height="71" viewBox="0 0 79 71" fill="none" xmlns="http://www.w3.org/2000/svg">
<path d="M22.5625 42.1094C22.5625 51.3281 20.4844 58.4375 16.3281 63.4375C12.2031 68.4375 6.375 70.9375 -1.15625 70.9375C-8.75 70.9375 -14.625 68.4219 -18.7812 63.3906C-22.9375 58.3594 -25.0156 51.2656 -25.0156 42.1094V29.6406C-25.0156 20.4219 -22.9531 13.3125 -18.8281 8.3125C-14.6719 3.3125 -8.8125 0.8125 -1.25 0.8125C6.3125 0.8125 12.1719 3.32813 16.3281 8.35938C20.4844 13.3906 22.5625 20.5 22.5625 29.6875V42.1094ZM6.76562 27.625C6.76562 22.7188 6.125 19.0625 4.84375 16.6562C3.5625 14.2188 1.53125 13 -1.25 13C-3.96875 13 -5.95312 14.125 -7.20312 16.375C-8.42188 18.625 -9.07812 22.0312 -9.17188 26.5938V44.0312C-9.17188 49.125 -8.53125 52.8594 -7.25 55.2344C-5.96875 57.5781 -3.9375 58.75 -1.15625 58.75C1.53125 58.75 3.51562 57.6094 4.79688 55.3281C6.07812 53.0156 6.73438 49.4062 6.76562 44.5V27.625ZM78.3906 70H30.7656V59.6875L52.7031 36.625C58.1094 30.4688 60.8125 25.5781 60.8125 21.9531C60.8125 19.0156 60.1719 16.7812 58.8906 15.25C57.6094 13.7188 55.75 12.9531 53.3125 12.9531C50.9062 12.9531 48.9531 13.9844 47.4531 16.0469C45.9531 18.0781 45.2031 20.625 45.2031 23.6875H29.3594C29.3594 19.5 30.4062 15.6406 32.5 12.1094C34.5938 8.54688 37.5 5.76563 41.2188 3.76562C44.9375 1.76562 49.0938 0.765625 53.6875 0.765625C61.0625 0.765625 66.7344 2.46875 70.7031 5.875C74.7031 9.28125 76.7031 14.1719 76.7031 20.5469C76.7031 23.2344 76.2031 25.8594 75.2031 28.4219C74.2031 30.9531 72.6406 33.625 70.5156 36.4375C68.4219 39.2188 65.0312 42.9531 60.3438 47.6406L51.5312 57.8125H78.3906V70Z" fill="#944B6E"/>
</svg>
