<svg width="79" height="71" viewBox="0 0 79 71" fill="none" xmlns="http://www.w3.org/2000/svg">
<path d="M22.5625 42.1094C22.5625 51.3281 20.4844 58.4375 16.3281 63.4375C12.2031 68.4375 6.375 70.9375 -1.15625 70.9375C-8.75 70.9375 -14.625 68.4219 -18.7812 63.3906C-22.9375 58.3594 -25.0156 51.2656 -25.0156 42.1094V29.6406C-25.0156 20.4219 -22.9531 13.3125 -18.8281 8.3125C-14.6719 3.3125 -8.8125 0.8125 -1.25 0.8125C6.3125 0.8125 12.1719 3.32813 16.3281 8.35938C20.4844 13.3906 22.5625 20.5 22.5625 29.6875V42.1094ZM6.76562 27.625C6.76562 22.7188 6.125 19.0625 4.84375 16.6562C3.5625 14.2188 1.53125 13 -1.25 13C-3.96875 13 -5.95312 14.125 -7.20312 16.375C-8.42188 18.625 -9.07812 22.0312 -9.17188 26.5938V44.0312C-9.17188 49.125 -8.53125 52.8594 -7.25 55.2344C-5.96875 57.5781 -3.9375 58.75 -1.15625 58.75C1.53125 58.75 3.51562 57.6094 4.79688 55.3281C6.07812 53.0156 6.73438 49.4062 6.76562 44.5V27.625ZM45.2031 29.2656H52.6562C58.5625 29.2656 61.5156 26.375 61.5156 20.5938C61.5156 18.3438 60.8125 16.5156 59.4062 15.1094C58 13.6719 56.0156 12.9531 53.4531 12.9531C51.3594 12.9531 49.5312 13.5625 47.9688 14.7812C46.4375 16 45.6719 17.5156 45.6719 19.3281H29.875C29.875 15.7344 30.875 12.5312 32.875 9.71875C34.875 6.90625 37.6406 4.71875 41.1719 3.15625C44.7344 1.5625 48.6406 0.765625 52.8906 0.765625C60.4844 0.765625 66.4531 2.5 70.7969 5.96875C75.1406 9.4375 77.3125 14.2031 77.3125 20.2656C77.3125 23.2031 76.4062 25.9844 74.5938 28.6094C72.8125 31.2031 70.2031 33.3125 66.7656 34.9375C70.3906 36.25 73.2344 38.25 75.2969 40.9375C77.3594 43.5938 78.3906 46.8906 78.3906 50.8281C78.3906 56.9219 76.0469 61.7969 71.3594 65.4531C66.6719 69.1094 60.5156 70.9375 52.8906 70.9375C48.4219 70.9375 44.2656 70.0938 40.4219 68.4062C36.6094 66.6875 33.7188 64.3281 31.75 61.3281C29.7812 58.2969 28.7969 54.8594 28.7969 51.0156H44.6875C44.6875 53.1094 45.5312 54.9219 47.2188 56.4531C48.9062 57.9844 50.9844 58.75 53.4531 58.75C56.2344 58.75 58.4531 57.9844 60.1094 56.4531C61.7656 54.8906 62.5938 52.9062 62.5938 50.5C62.5938 47.0625 61.7344 44.625 60.0156 43.1875C58.2969 41.75 55.9219 41.0312 52.8906 41.0312H45.2031V29.2656Z" fill="#944B6E"/>
</svg>
