<svg width="82" height="71" viewBox="0 0 82 71" fill="none" xmlns="http://www.w3.org/2000/svg">
<path d="M24.5625 42.1094C24.5625 51.3281 22.4844 58.4375 18.3281 63.4375C14.2031 68.4375 8.375 70.9375 0.84375 70.9375C-6.75 70.9375 -12.625 68.4219 -16.7812 63.3906C-20.9375 58.3594 -23.0156 51.2656 -23.0156 42.1094V29.6406C-23.0156 20.4219 -20.9531 13.3125 -16.8281 8.3125C-12.6719 3.3125 -6.8125 0.8125 0.75 0.8125C8.3125 0.8125 14.1719 3.32813 18.3281 8.35938C22.4844 13.3906 24.5625 20.5 24.5625 29.6875V42.1094ZM8.76562 27.625C8.76562 22.7188 8.125 19.0625 6.84375 16.6562C5.5625 14.2188 3.53125 13 0.75 13C-1.96875 13 -3.95312 14.125 -5.20312 16.375C-6.42188 18.625 -7.07812 22.0312 -7.17188 26.5938V44.0312C-7.17188 49.125 -6.53125 52.8594 -5.25 55.2344C-3.96875 57.5781 -1.9375 58.75 0.84375 58.75C3.53125 58.75 5.51562 57.6094 6.79688 55.3281C8.07812 53.0156 8.73438 49.4062 8.76562 44.5V27.625ZM74.4844 43.3281H81.4219V55.5156H74.4844V70H58.6875V55.5156H32.2969L31.3594 45.8594L58.6875 1.89062V1.75H74.4844V43.3281ZM46.4062 43.3281H58.6875V22.3281L57.7031 23.9219L46.4062 43.3281Z" fill="#944B6E"/>
</svg>
